# xmcd
#
# Track frame offsets:
#	225
#	4035
#	7950
#	14076
#	22232
#	32302
#	41526
#	50011
#	57444
#	65690
#	76130
#	90526
#	103435
#	123534
#	146477
#	158920
#	172587
#	183380
#	190597
#	199384
#	212938
#	234090
#	241649
#	251664
#	263791
#	278937
#	291161
#	308097
#	317034
#	330457
#
# Disc length: 4558 seconds
#
# Revision: 0
# Processed by: cddbd v1.5.2PL0 Copyright (c) Steve Scherf et al.
# Submitted via: EasyCDDAExtractor 15.2.5.1
#
DISCID=a211cb1e
DTITLE=Various Artist - BIG CITY SUITE (KPM)
DYEAR=1900
DGENRE=
TTITLE0=DAVID GOLD - BIG CITY - OPENING (PART 1)
TTITLE1=DAVID GOLD - BIG CITY - OPENING (PART 2)
TTITLE2=DAVID GOLD - BIG CITY - CLOSING
TTITLE3=DAVID GOLD - RUGGED CITY
TTITLE4=DAVID GOLD - CITY POLICE
TTITLE5=DAVID GOLD - CITY CENTRE
TTITLE6=DAVID GOLD - IMPRESSIONS OF A CITY
TTITLE7=DAVID GOLD - CITY AIRSCAPE
TTITLE8=DAVID GOLD - PULSE OF A CITY
TTITLE9=DAVID GOLD - CITY AT LEISURE
TTITLE10=DAVID LINDUP - TESTING TIME
TTITLE11=JOHN CAMERON - FOUR O'CLOCK EARTHQUAKE
TTITLE12=JOHN CAMERON - SMOKEY JOE'S DILEMMA
TTITLE13=BRIAN BENNETT and ALAN HAWKSHAW - ALTO GLIDE
TTITLE14=JOHN CAMERON - JAY WALKING
TTITLE15=KEITH MANSFIELD - TRIAL OF STRENGTH
TTITLE16=JOHN CAMERON - GO GETTER
TTITLE17=JAMES CLARKE - WATCHFUL EYE
TTITLE18=ALAN HAWKSHAW - SUNSHINE SPECIAL
TTITLE19=DAVE RICHMOND - BRASS BULLET
TTITLE20=KEITH MANSFIELD - GOOD VIBRATIONS
TTITLE21=BRIAN BENNETT - UNKNOWING SURVEILLANCE
TTITLE22=STEVE GRAY - THEME FOR A HUNTER
TTITLE23=CLIVE HICKS - LAP OF HONOUR
TTITLE24=KEITH MANSFIELD - THE FIX
TTITLE25=BRIAN BENNETT and ALAN HAWKSHAW - DOSSIER
TTITLE26=KEITH MANSFIELD - SNAKE HIPS
TTITLE27=ALAN HAWKSHAW - GET READY, GET SET - FLY
TTITLE28=JOHN SCOTT - ROCK BREAKER
TTITLE29=NICK INGMAN - OPEN ROADS
EXTD=
EXTT0=
EXTT1=
EXTT2=
EXTT3=
EXTT4=
EXTT5=
EXTT6=
EXTT7=
EXTT8=
EXTT9=
EXTT10=
EXTT11=
EXTT12=
EXTT13=
EXTT14=
EXTT15=
EXTT16=
EXTT17=
EXTT18=
EXTT19=
EXTT20=
EXTT21=
EXTT22=
EXTT23=
EXTT24=
EXTT25=
EXTT26=
EXTT27=
EXTT28=
EXTT29=
PLAYORDER=
